<?xml version="1.0" encoding="utf-8"?><svg xmlns="http://www.w3.org/2000/svg" xmlns:xlink="http://www.w3.org/1999/xlink" width="1440" height="789" preserveAspectRatio="xMidYMid" viewBox="0 0 1440 789" style="z-index:1;margin-right:-2px;display:block;background-repeat-y:initial;background-repeat-x:initial;background-color:rgb(255, 255, 255);animation-play-state:paused" ><g transform="translate(720,394.5) scale(1,1) translate(-720,-394.5)" style="transform:matrix(1, 0, 0, 1, 0, 0);animation-play-state:paused" ><linearGradient id="lg-0.3581283994168163" x1="0" x2="1" y1="0" y2="0" style="animation-play-state:paused" ><stop stop-color="#ff00ff" offset="0" style="animation-play-state:paused" ></stop>

  
<stop stop-color="#00ffff" offset="1" style="animation-play-state:paused" ></stop></linearGradient>
<path d="M 0 0 L 0 775.315 Q 144 592.912 288 553.327 T 576 478.022 T 864 452.3 T 1152 317.904 T 1440 349.907 L 1440 0 Z" fill="url(#lg-0.3581283994168163)" opacity="0.4" style="opacity:0.4;animation-play-state:paused" ></path>
<path d="M 0 0 L 0 736.617 Q 144 649.613 288 619.285 T 576 571.712 T 864 460.355 T 1152 381.306 T 1440 394.428 L 1440 0 Z" fill="url(#lg-0.3581283994168163)" opacity="0.4" style="opacity:0.4;animation-play-state:paused" ></path>
<path d="M 0 0 L 0 725.277 Q 144 679.58 288 642.039 T 576 552.116 T 864 471.911 T 1152 358.866 T 1440 307.01 L 1440 0 Z" fill="url(#lg-0.3581283994168163)" opacity="0.4" style="opacity:0.4;animation-play-state:paused" ></path>
<path d="M 0 0 L 0 712.746 Q 144 643.703 288 624.165 T 576 537.953 T 864 510.589 T 1152 401.054 T 1440 411.543 L 1440 0 Z" fill="url(#lg-0.3581283994168163)" opacity="0.4" style="opacity:0.4;animation-play-state:paused" ></path>
<path d="M 0 0 L 0 746.943 Q 144 648.25 288 627.517 T 576 570.09 T 864 532.022 T 1152 448.506 T 1440 349.485 L 1440 0 Z" fill="url(#lg-0.3581283994168163)" opacity="0.4" style="opacity:0.4;animation-play-state:paused" ></path></g></svg>