<?xml version="1.0" encoding="utf-8"?><svg xmlns="http://www.w3.org/2000/svg" xmlns:xlink="http://www.w3.org/1999/xlink" width="1504" height="789" preserveAspectRatio="xMidYMid" viewBox="0 0 1504 789" style="z-index:1;shape-rendering:crispedges;margin-right:-2px;display:block;background-repeat-y:initial;background-repeat-x:initial;animation-play-state:paused" ><g transform="translate(752,394.5) scale(1,1) translate(-752,-394.5)" style="transform:matrix(1, 0, 0, 1, 0, 0);animation-play-state:paused" ><linearGradient id="lg-0.35272401396413877" x1="0" x2="1" y1="0" y2="0" style="animation-play-state:paused" ><stop stop-color="#f96ab6" offset="0" style="animation-play-state:paused" ></stop>

  
<stop stop-color="#00aaff" offset="1" style="animation-play-state:paused" ></stop></linearGradient>
<path d="M 0 0 L 0 764.175 Q 376 387.096 752 366.371 T 1504 -7.08493 L 1504 0 Z" fill="url(#lg-0.35272401396413877)" opacity="0.38" style="opacity:0.38;animation-play-state:paused" ></path>
<path d="M 0 0 L 0 739.86 Q 376 437.626 752 404.217 T 1504 35.8767 L 1504 0 Z" fill="url(#lg-0.35272401396413877)" opacity="0.38" style="opacity:0.38;animation-play-state:paused" ></path>
<path d="M 0 0 L 0 747.38 Q 376 354.934 752 326.957 T 1504 -16.8483 L 1504 0 Z" fill="url(#lg-0.35272401396413877)" opacity="0.38" style="opacity:0.38;animation-play-state:paused" ></path>
<path d="M 0 0 L 0 684.221 Q 376 350.285 752 333.708 T 1504 -45.23 L 1504 0 Z" fill="url(#lg-0.35272401396413877)" opacity="0.38" style="opacity:0.38;animation-play-state:paused" ></path>
<path d="M 0 0 L 0 711.576 Q 376 346.126 752 332.06 T 1504 45.3121 L 1504 0 Z" fill="url(#lg-0.35272401396413877)" opacity="0.38" style="opacity:0.38;animation-play-state:paused" ></path></g></svg>